<?xml version="1.0" encoding="utf-8"?>
<!-- Generator: Adobe Illustrator 27.4.0, SVG Export Plug-In . SVG Version: 6.00 Build 0)  -->
<svg version="1.1" id="Layer_1" xmlns="http://www.w3.org/2000/svg" xmlns:xlink="http://www.w3.org/1999/xlink" x="0px" y="0px"
	 viewBox="0 0 642 184.5" style="enable-background:new 0 0 642 184.5;" xml:space="preserve">
<style type="text/css">
	.st0{fill:#FFFFFF;}
	.st1{fill:#536EE1;}
</style>
<g>
	<g>
		<path class="st0" d="M223.53,29.5l-7.06,15.32l-11.5,24.96l-7.06,15.32l-6.48,14.07l-7.06,15.32l-11.5,24.96l-2.94,6.4l-0.01,0.01
			c-0.06,0.14-0.13,0.28-0.19,0.42c-3.68,7.69-9.97,8.43-13.7,8.5c-0.25,0.01-0.49,0.01-0.72,0.01h-6.37l-7.62,0.01l-14.15,0.01
			l-16.87,0.01l-21.77,0.02l7.05-15.32l21.77-0.01l16.87-0.02l14.15-0.01l4.77-0.01c1.61,0,2.81-0.17,3.65-1.74
			c0.01-0.01,0.01-0.02,0.02-0.03c0.1-0.17,0.18-0.37,0.27-0.59c0-0.01,0.01-0.01,0.01-0.01l10.4-22.58l7.06-15.32l6.48-14.07
			l7.06-15.32l11.5-24.96l-7.62,0.01l-14.15,0.01l-16.87,0.01l-21.77,0.02l-25.03,0.02l-11.5,24.96l25.03-0.02l21.77-0.02
			l16.87-0.01l-7.06,15.32l-6.49,14.07l-7.05,15.32l-16.87,0.01l-21.77,0.02l-25.03,0.02l-11.5,24.96l-7.06,15.32l-6.48,14.07
			l-7.06,15.32l-16.87,0.02l7.06-15.32l6.48-14.07l7.06-15.32l11.5-24.96l7.06-15.32l16.87-0.01l25.03-0.02l21.77-0.02l6.49-14.07
			l-21.77,0.02l-25.04,0.02l-16.87,0.02l7.06-15.32l11.5-24.96l7.05-15.32l16.88-0.01l25.03-0.02l21.77-0.02l16.87-0.01l14.15-0.01
			l7.62-0.01L223.53,29.5z"/>
		<path class="st1" d="M269.17,0.09l-7.06,15.31l-6.48,14.07l-7.06,15.32l-11.5,24.96l-7.06,15.32l-6.48,14.07l-7.06,15.31
			L205,139.41l-7.06,15.32l-3.01,6.53c-1.3,2.85-2.8,5.35-4.42,7.55c-7.11,9.62-16.64,13.32-22.67,14.66
			c-1.95,0.43-3.54,0.61-4.56,0.67c-0.02,0-0.03,0.01-0.04,0.01h-0.59l-10.36,0.01l-16.87,0.01l-7.62,0.01l-14.15,0.01l-16.87,0.01
			l-21.77,0.02l7.05-15.32l21.77-0.02l16.87-0.01l14.15-0.01l7.62-0.01l16.57-0.01h0.33c2.93,0,15.05-0.28,21.69-14.09
			c0.02-0.03,0.03-0.05,0.04-0.09c0.15-0.31,0.3-0.63,0.44-0.96l6.57-14.27l11.5-24.96l7.06-15.32l6.48-14.07l7.06-15.32l11.5-24.96
			l7.06-15.31l6.48-14.07l-15.24,0.01l-16.87,0.01l-7.62,0.01l-14.15,0.01l-16.87,0.01l-21.77,0.02l-25.04,0.02l-16.87,0.01
			l-12.33,0.01h-0.01c-1.19,0-2.62,0.21-3.97,2.33L89.1,29.6l-7.06,15.32l-11.5,24.96L63.5,85.19l-6.48,14.07l-7.06,15.32
			l-11.5,24.96l-7.06,15.32l-6.48,14.07l-7.06,15.32L1,184.25l7.06-15.32l6.48-14.07l7.06-15.32l11.5-24.96l7.05-15.32h0.01
			l6.48-14.07l7.06-15.32l11.5-24.96l7.06-15.32l6.48-14.07l1.89-4.1c0.08-0.17,0.16-0.34,0.23-0.51
			C85.8,0.56,95.08,0.22,97.91,0.21h0.06l4.67-0.01l15.24-0.01l16.87-0.01l25.03-0.02l21.77-0.02l16.87-0.01l14.15-0.01l7.62-0.01
			l16.87-0.01L252.3,0.1L269.17,0.09z"/>
	</g>
	<g>
		<g>
			<path class="st0" d="M321.35,89.98c-5.05,2.45-11.64,3.67-19.78,3.67c-10.61,0-18.96-3.12-25.04-9.36
				c-6.08-6.24-9.12-14.55-9.12-24.94c0-11.06,3.42-20.04,10.25-26.92c6.83-6.88,15.7-10.32,26.61-10.32
				c6.75,0,12.45,0.85,17.08,2.56v15.01c-4.63-2.77-9.91-4.15-15.83-4.15c-6.5,0-11.74,2.04-15.73,6.13
				c-3.99,4.09-5.98,9.62-5.98,16.6c0,6.69,1.88,12.02,5.64,15.99c3.76,3.97,8.83,5.96,15.2,5.96c6.08,0,11.64-1.48,16.69-4.44
				V89.98z"/>
			<path class="st0" d="M364.15,56.78c-1.83-1-3.97-1.5-6.42-1.5c-3.31,0-5.9,1.21-7.77,3.64c-1.87,2.43-2.8,5.73-2.8,9.91v23.59
				h-15.25V43.03h15.25v9.17h0.19c2.41-6.69,6.75-10.04,13.03-10.04c1.61,0,2.86,0.19,3.76,0.58V56.78z"/>
			<path class="st0" d="M415.25,72.08h-32.23c0.51,7.17,5.03,10.76,13.56,10.76c5.44,0,10.21-1.29,14.33-3.86v11
				c-4.57,2.45-10.5,3.67-17.8,3.67c-7.98,0-14.17-2.21-18.58-6.63c-4.41-4.42-6.61-10.59-6.61-18.5c0-8.2,2.38-14.7,7.14-19.49
				c4.76-4.79,10.61-7.19,17.56-7.19c7.21,0,12.78,2.14,16.72,6.42c3.94,4.28,5.91,10.08,5.91,17.42V72.08z M401.11,62.72
				c0-7.08-2.86-10.61-8.59-10.61c-2.44,0-4.56,1.01-6.34,3.04c-1.79,2.03-2.87,4.55-3.26,7.58H401.11z"/>
			<path class="st0" d="M465.42,92.44H451v-7.09h-0.19c-3.31,5.53-8.22,8.3-14.72,8.3c-4.79,0-8.56-1.36-11.31-4.08
				c-2.75-2.72-4.12-6.34-4.12-10.88c0-9.58,5.68-15.12,17.03-16.6l13.41-1.79c0-5.4-2.93-8.11-8.78-8.11
				c-5.89,0-11.48,1.75-16.79,5.26V45.97c2.12-1.09,5.03-2.06,8.71-2.89c3.68-0.84,7.04-1.25,10.06-1.25
				c14.09,0,21.13,7.03,21.13,21.08V92.44z M451.09,72.37v-3.33l-8.97,1.16c-4.95,0.64-7.43,2.88-7.43,6.71
				c0,1.74,0.6,3.16,1.81,4.27c1.21,1.11,2.84,1.66,4.9,1.66c2.86,0,5.19-0.99,7-2.97C450.19,77.89,451.09,75.39,451.09,72.37z"/>
			<path class="st0" d="M507.35,91.86c-2.25,1.19-5.64,1.79-10.18,1.79c-10.74,0-16.12-5.58-16.12-16.74V54.27h-8.01V43.03h8.01
				V32.37l15.2-4.34v15h11.1v11.24h-11.1v19.97c0,5.15,2.04,7.72,6.13,7.72c1.61,0,3.26-0.47,4.97-1.4V91.86z"/>
			<path class="st0" d="M523.66,35.21c-2.57,0-4.68-0.76-6.32-2.29c-1.64-1.53-2.46-3.4-2.46-5.62c0-2.28,0.82-4.15,2.46-5.6
				c1.64-1.45,3.75-2.17,6.32-2.17c2.61,0,4.72,0.72,6.34,2.17c1.62,1.45,2.44,3.31,2.44,5.6c0,2.32-0.81,4.21-2.44,5.69
				C528.38,34.47,526.27,35.21,523.66,35.21z M531.19,92.44h-15.25V43.03h15.25V92.44z"/>
			<path class="st0" d="M591.06,43.03l-18.38,49.41h-17.37L537.8,43.03h16.31l8.59,30.45c0.96,3.44,1.53,6.37,1.69,8.78h0.19
				c0.22-2.28,0.82-5.11,1.79-8.49l8.78-30.73H591.06z"/>
			<path class="st0" d="M641,72.08h-32.23c0.51,7.17,5.03,10.76,13.56,10.76c5.44,0,10.21-1.29,14.33-3.86v11
				c-4.57,2.45-10.5,3.67-17.8,3.67c-7.98,0-14.17-2.21-18.58-6.63c-4.41-4.42-6.61-10.59-6.61-18.5c0-8.2,2.38-14.7,7.14-19.49
				c4.76-4.79,10.61-7.19,17.56-7.19c7.21,0,12.78,2.14,16.72,6.42c3.94,4.28,5.91,10.08,5.91,17.42V72.08z M626.86,62.72
				c0-7.08-2.86-10.61-8.59-10.61c-2.44,0-4.56,1.01-6.34,3.04c-1.79,2.03-2.87,4.55-3.26,7.58H626.86z"/>
		</g>
		<g>
			<path class="st0" d="M296.84,183.04h-15.63v-28.18h-28.66v28.18h-15.58v-69.19h15.58v27.6h28.66v-27.6h15.63V183.04z"/>
			<path class="st0" d="M358.12,183.04h-15.2v-7.53h-0.24c-3.76,5.82-8.8,8.73-15.1,8.73c-11.45,0-17.18-6.93-17.18-20.79v-29.82
				h15.2v28.47c0,6.98,2.77,10.47,8.3,10.47c2.73,0,4.92-0.96,6.56-2.87c1.64-1.91,2.46-4.51,2.46-7.79v-28.27h15.2V183.04z"/>
			<path class="st0" d="M386.39,177.3h-0.19v5.74h-15.25V109.9h15.25v31.17h0.19c3.76-5.76,9.12-8.64,16.07-8.64
				c6.37,0,11.27,2.19,14.72,6.56c3.44,4.37,5.16,10.36,5.16,17.95c0,8.24-2.01,14.85-6.03,19.83c-4.02,4.99-9.39,7.48-16.11,7.48
				C394.11,184.25,389.51,181.93,386.39,177.3z M385.96,156.46v5.07c0,3.18,0.92,5.82,2.75,7.91c1.83,2.09,4.18,3.14,7.04,3.14
				c3.47,0,6.17-1.34,8.08-4.03s2.87-6.49,2.87-11.41c0-4.08-0.88-7.28-2.63-9.58c-1.75-2.3-4.25-3.45-7.5-3.45
				c-3.06,0-5.59,1.14-7.6,3.43S385.96,152.79,385.96,156.46z"/>
		</g>
	</g>
</g>
</svg>
